<svg width="31" height="30" viewBox="0 0 31 30" fill="none" xmlns="http://www.w3.org/2000/svg">
<path d="M15.2053 0C6.82718 0 0 6.56942 0 14.6312C0 22.693 6.82718 29.2624 15.2053 29.2624C23.5834 29.2624 30.4106 22.693 30.4106 14.6312C30.4106 6.56942 23.5834 0 15.2053 0ZM22.4734 11.266L13.852 19.5619C13.6391 19.7668 13.3502 19.8838 13.0461 19.8838C12.742 19.8838 12.4531 19.7668 12.2403 19.5619L7.93716 15.4213C7.49621 14.997 7.49621 14.2947 7.93716 13.8704C8.37812 13.4461 9.10797 13.4461 9.54892 13.8704L13.0461 17.2356L20.8617 9.71513C21.3026 9.29083 22.0325 9.29083 22.4734 9.71513C22.9144 10.1394 22.9144 10.8271 22.4734 11.266Z" fill="#003478"/>
</svg>
