<svg width="49" height="49" viewBox="0 0 49 49" fill="none" xmlns="http://www.w3.org/2000/svg">
<path fill-rule="evenodd" clip-rule="evenodd" d="M12.25 30.625C11.8439 30.625 11.4544 30.7863 11.1672 31.0735C10.8801 31.3607 10.7188 31.7501 10.7188 32.1562C10.7188 32.5624 10.8801 32.9518 11.1672 33.239C11.4544 33.5261 11.8439 33.6875 12.25 33.6875H24.5C24.9061 33.6875 25.2956 33.5261 25.5827 33.239C25.8699 32.9518 26.0312 32.5624 26.0312 32.1562C26.0312 31.7501 25.8699 31.3607 25.5827 31.0735C25.2956 30.7863 24.9061 30.625 24.5 30.625H12.25Z" fill="#003478"/>
<path fill-rule="evenodd" clip-rule="evenodd" d="M15.3125 26.0312C14.9064 26.0312 14.5169 26.1926 14.2297 26.4798C13.9426 26.7669 13.7812 27.1564 13.7812 27.5625C13.7812 27.9686 13.9426 28.3581 14.2297 28.6452C14.5169 28.9324 14.9064 29.0937 15.3125 29.0937H24.5C24.9061 29.0937 25.2956 28.9324 25.5827 28.6452C25.8699 28.3581 26.0312 27.9686 26.0312 27.5625C26.0312 27.1564 25.8699 26.7669 25.5827 26.4798C25.2956 26.1926 24.9061 26.0312 24.5 26.0312H15.3125Z" fill="#003478"/>
<path fill-rule="evenodd" clip-rule="evenodd" d="M19.9062 21.4375C19.5001 21.4375 19.1107 21.5988 18.8235 21.886C18.5363 22.1732 18.375 22.5626 18.375 22.9687C18.375 23.3749 18.5363 23.7643 18.8235 24.0515C19.1107 24.3386 19.5001 24.5 19.9062 24.5H24.5C24.9061 24.5 25.2956 24.3386 25.5828 24.0515C25.8699 23.7643 26.0312 23.3749 26.0312 22.9687C26.0312 22.5626 25.8699 22.1732 25.5828 21.886C25.2956 21.5988 24.9061 21.4375 24.5 21.4375H19.9062Z" fill="#003478"/>
<path fill-rule="evenodd" clip-rule="evenodd" d="M7.65625 13.8022C7.25014 13.8022 6.86066 13.9635 6.57349 14.2507C6.28633 14.5379 6.125 14.9274 6.125 15.3335C6.125 15.7396 6.28633 16.1291 6.57349 16.4162C6.86066 16.7034 7.25014 16.8647 7.65625 16.8647H13.7812C14.1874 16.8647 14.5768 16.7034 14.864 16.4162C15.1512 16.1291 15.3125 15.7396 15.3125 15.3335C15.3125 14.9274 15.1512 14.5379 14.864 14.2507C14.5768 13.9635 14.1874 13.8022 13.7812 13.8022H7.65625Z" fill="#003478"/>
<path fill-rule="evenodd" clip-rule="evenodd" d="M10.7187 6.146C5.66278 6.146 1.53125 10.2775 1.53125 15.3335C1.53125 18.0407 2.71697 20.4825 4.59375 22.1673V39.8125C4.59379 40.2186 4.75513 40.6081 5.04228 40.8953C5.32944 41.1824 5.7189 41.3437 6.125 41.3438H9.45367C10.0902 43.1206 11.7977 44.4063 13.7812 44.4063C15.7647 44.4063 17.4723 43.1206 18.1088 41.3438H29.0937H32.4224C33.0589 43.1206 34.7665 44.4063 36.75 44.4063C38.7335 44.4063 40.441 43.1206 41.0775 41.3438H45.9375C46.3436 41.3437 46.733 41.1824 47.0202 40.8953C47.3073 40.6081 47.4687 40.2186 47.4687 39.8125V29.0938C47.469 28.746 47.3508 28.4085 47.1337 28.1368L41.0088 20.4805C40.8652 20.3012 40.6831 20.1565 40.476 20.0571C40.269 19.9577 40.0422 19.9062 39.8125 19.9063H30.625V16.8438C30.6249 16.4377 30.4636 16.0482 30.1764 15.7611C29.8893 15.4739 29.4998 15.3126 29.0937 15.3126H19.9062C19.8947 10.2661 15.7677 6.146 10.7187 6.146ZM10.7187 9.20849C14.1196 9.20849 16.8437 11.9326 16.8437 15.3335C16.8437 18.7344 14.1196 21.4585 10.7187 21.4585C9.4464 21.4585 8.26706 21.0791 7.29138 20.4237C7.14612 20.2505 6.96432 20.1116 6.75903 20.017C5.43264 18.8964 4.59375 17.2195 4.59375 15.3335C4.59375 11.9326 7.31787 9.20849 10.7187 9.20849ZM19.3829 18.375H27.5625V38.2813H18.1088C17.4723 36.5044 15.7647 35.2188 13.7812 35.2188C11.7977 35.2188 10.0902 36.5044 9.45367 38.2813H7.65624V23.9916C8.61522 24.333 9.64587 24.521 10.7187 24.521C14.7095 24.521 18.1211 21.9459 19.3829 18.375ZM30.625 22.9688H33.6875V30.625C33.6875 31.0311 33.8489 31.4206 34.136 31.7078C34.4232 31.9949 34.8126 32.1562 35.2187 32.1563H44.4062V38.2813H41.0775C40.441 36.5044 38.7335 35.2188 36.75 35.2188C34.7665 35.2188 33.0589 36.5044 32.4224 38.2813H30.625V22.9688ZM36.75 22.9688H39.0767L43.9755 29.0938H36.75V22.9688ZM13.7812 38.2813C14.6451 38.2813 15.3125 38.9487 15.3125 39.8125C15.3125 40.6763 14.6451 41.3438 13.7812 41.3438C12.9174 41.3438 12.25 40.6763 12.25 39.8125C12.25 38.9487 12.9174 38.2813 13.7812 38.2813ZM36.75 38.2813C37.6138 38.2813 38.2812 38.9487 38.2812 39.8125C38.2812 40.6763 37.6138 41.3438 36.75 41.3438C35.8861 41.3438 35.2187 40.6763 35.2187 39.8125C35.2187 38.9487 35.8861 38.2813 36.75 38.2813Z" fill="#003478"/>
</svg>
