<svg width="17" height="17" viewBox="0 0 17 17" fill="none" xmlns="http://www.w3.org/2000/svg">
<path d="M8.50073 13.0474C9.2659 13.0474 9.88623 12.4271 9.88623 11.6619C9.88623 10.8967 9.2659 10.2764 8.50073 10.2764C7.73556 10.2764 7.11523 10.8967 7.11523 11.6619C7.11523 12.4271 7.73556 13.0474 8.50073 13.0474Z" fill="#292D32"/>
<path d="M13.838 6.4005V5.338C13.838 3.043 13.2855 0 8.5 0C3.7145 0 3.162 3.043 3.162 5.338V6.4005C0.782 6.698 0 7.905 0 10.8715V12.4525C0 15.9375 1.0625 17 4.5475 17H12.4525C15.9375 17 17 15.9375 17 12.4525V10.8715C17 7.905 16.218 6.698 13.838 6.4005ZM8.5 14.229C7.0805 14.229 5.933 13.073 5.933 11.662C5.933 10.2425 7.089 9.095 8.5 9.095C9.911 9.095 11.067 10.251 11.067 11.662C11.067 13.0815 9.9195 14.229 8.5 14.229ZM4.5475 6.324C4.4795 6.324 4.42 6.324 4.352 6.324V5.338C4.352 2.8475 5.0575 1.19 8.5 1.19C11.9425 1.19 12.648 2.8475 12.648 5.338V6.3325C12.58 6.3325 12.5205 6.3325 12.4525 6.3325H4.5475V6.324Z" fill="#292D32"/>
</svg>
