<svg width="22" height="22" viewBox="0 0 22 22" fill="none" xmlns="http://www.w3.org/2000/svg">
<path d="M11 0C4.939 0 0 4.939 0 11C0 17.061 4.939 22 11 22C17.061 22 22 17.061 22 11C22 4.939 17.061 0 11 0ZM15.466 10.197L11.583 14.08C11.418 14.245 11.209 14.322 11 14.322C10.791 14.322 10.582 14.245 10.417 14.08L6.534 10.197C6.215 9.878 6.215 9.35 6.534 9.031C6.853 8.712 7.381 8.712 7.7 9.031L11 12.331L14.3 9.031C14.619 8.712 15.147 8.712 15.466 9.031C15.785 9.35 15.785 9.867 15.466 10.197Z" fill="#003478"/>
</svg>
